<svg width="63" height="63" fill="none" xmlns="http://www.w3.org/2000/svg"><path d="M12.767 41.878c6.237 7.428 13.745 13.276 22.315 17.415 3.263 1.54 7.627 3.368 12.488 3.68.302.014.59.027.891.027 3.263 0 5.884-1.123 8.02-3.433a.282.282 0 0 0 .052-.066c.76-.913 1.625-1.736 2.53-2.61a60.717 60.717 0 0 0 1.847-1.828c2.791-2.898 2.791-6.58-.026-9.386l-7.876-7.846c-1.336-1.383-2.935-2.114-4.612-2.114-1.678 0-3.29.73-4.665 2.101l-4.691 4.674c-.433-.248-.878-.47-1.297-.68a16.217 16.217 0 0 1-1.442-.782c-4.272-2.703-8.15-6.227-11.859-10.757-1.874-2.363-3.132-4.347-4.01-6.37 1.232-1.11 2.385-2.272 3.5-3.408.392-.404.798-.81 1.205-1.214 1.415-1.41 2.175-3.041 2.175-4.7 0-1.657-.747-3.289-2.175-4.699l-3.905-3.89c-.459-.457-.891-.9-1.337-1.358a71.75 71.75 0 0 0-2.66-2.624C15.885.692 14.3 0 12.623 0 10.957 0 9.36.692 7.958 2.023L3.057 6.906C1.275 8.68.266 10.836.056 13.328c-.249 3.12.328 6.436 1.821 10.444 2.294 6.2 5.753 11.958 10.89 18.106zM3.253 13.603c.158-1.737.826-3.186 2.084-4.439l4.874-4.856c.76-.731 1.6-1.11 2.412-1.11.799 0 1.611.379 2.358 1.136.878.81 1.704 1.658 2.595 2.559.445.457.904.913 1.363 1.383l3.904 3.89c.813.81 1.232 1.632 1.232 2.442 0 .81-.42 1.631-1.232 2.44-.406.406-.812.823-1.218 1.228-1.219 1.227-2.359 2.389-3.617 3.499l-.065.065c-1.088 1.083-.918 2.115-.655 2.898.013.039.026.065.039.104 1.009 2.415 2.41 4.713 4.6 7.454 3.93 4.83 8.071 8.577 12.631 11.462.564.365 1.166.653 1.73.94a16.19 16.19 0 0 1 1.441.783c.053.026.092.052.145.078.432.222.851.327 1.27.327 1.049 0 1.73-.666 1.953-.888l4.9-4.882c.76-.757 1.586-1.162 2.399-1.162.996 0 1.808.614 2.32 1.162l7.9 7.858c1.573 1.567 1.56 3.264-.038 4.922a43.704 43.704 0 0 1-1.743 1.736c-.918.888-1.874 1.802-2.739 2.833-1.507 1.619-3.302 2.376-5.622 2.376-.222 0-.458-.013-.68-.026-4.299-.274-8.296-1.945-11.296-3.368-8.15-3.93-15.306-9.504-21.242-16.58C10.37 34.008 7.08 28.55 4.904 22.702c-1.35-3.59-1.86-6.474-1.65-9.098z" fill="#000"/></svg>