<svg width="22" height="26" fill="none" xmlns="http://www.w3.org/2000/svg"><path d="M17.906 11.368c2.87-1.2 4.094-3.64 4.094-5.403C22 2.89 19.82 0 13.774 0 10.33 0 7.576.488 2.908 2.439l1.875 5.44c2.946-1.276 4.897-1.726 6.58-1.726 1.301 0 1.837.638 1.837 1.276 0 1.65-2.22 2.4-6.504 3.189l.841 4.764c1.646-.225 2.41-.262 2.832-.262 1.454 0 2.716.488 2.716 1.8 0 2.214-2.18 2.777-4.362 2.777-1.798 0-3.481-.45-6.198-1.313L0 23.936C2.831 25.7 7.805 26 9.336 26c8.073 0 12.55-4.09 12.55-9.23 0-1.913-1.034-4.201-4.018-5.177l.038-.225z" fill="#00A9CF"/></svg>