<svg width="22" height="26" viewBox="0 0 22 26" fill="none" xmlns="http://www.w3.org/2000/svg">
<path d="M9.66782 14.1056C11.2284 14.1056 12.6747 14.7155 12.6747 16.3167C12.6747 18.566 10.7716 19.3284 8.56401 19.3284C6.81315 19.3284 5.10035 18.9853 2.35986 17.9941L0 23.827C2.85467 25.695 7.80277 26 9.32526 26C16.2526 26 21.4291 22.1496 21.4291 15.8592C21.4291 11.0557 18.346 8.31085 12.2561 8.31085C11.7612 8.31085 11.0761 8.34898 10.391 8.46334L11.0381 5.52786H15.0727L14.8443 7.35777H21.0865L22 0H5.02422L2.20761 13.1144L5.86159 14.868C7.19377 14.3724 8.75433 14.1056 9.66782 14.1056Z" fill="#00A9CF"/>
</svg>
