<svg width="87" height="105" fill="none" xmlns="http://www.w3.org/2000/svg"><path d="M70.7 46.15c11.25-4.8 16.05-14.55 16.05-21.6C86.75 12.25 78.2.7 54.5.7 41 .7 30.2 2.65 11.9 10.45l7.35 21.75c11.55-5.1 19.2-6.9 25.8-6.9 5.1 0 7.2 2.55 7.2 5.1 0 6.6-8.7 9.6-25.5 12.75l3.3 19.05c6.45-.9 9.45-1.05 11.1-1.05 5.7 0 10.65 1.95 10.65 7.2 0 8.85-8.55 11.1-17.1 11.1-7.05 0-13.65-1.8-24.3-5.25L.5 96.4c11.1 7.05 30.6 8.25 36.6 8.25 31.65 0 49.2-16.35 49.2-36.9 0-7.65-4.05-16.8-15.75-20.7l.15-.9z"/></svg>