<svg width="87" height="105" viewBox="0 0 87 105" fill="none" xmlns="http://www.w3.org/2000/svg">
<path d="M70.7 46.15C81.95 41.35 86.75 31.6 86.75 24.55C86.75 12.25 78.2 0.699994 54.5 0.699994C41 0.699994 30.2 2.65 11.9 10.45L19.25 32.2C30.8 27.1 38.45 25.3 45.05 25.3C50.15 25.3 52.25 27.85 52.25 30.4C52.25 37 43.55 40 26.75 43.15L30.05 62.2C36.5 61.3 39.5 61.15 41.15 61.15C46.85 61.15 51.8 63.1 51.8 68.35C51.8 77.2 43.25 79.45 34.7 79.45C27.65 79.45 21.05 77.65 10.4 74.2L0.5 96.4C11.6 103.45 31.1 104.65 37.1 104.65C68.75 104.65 86.3 88.3 86.3 67.75C86.3 60.1 82.25 50.95 70.55 47.05L70.7 46.15Z" fill="#00A9CF"/>
</svg>
