<svg width="18" height="14" viewBox="0 0 18 14" fill="none" xmlns="http://www.w3.org/2000/svg">
<path opacity="0.3" d="M15.8636 0H2.13645C0.958418 0 0 0.942524 0 2.10101V11.899C0 13.0575 0.958418 14 2.13645 14H15.8636C17.0416 14 18 13.0575 18 11.899V2.10101C18 0.942524 17.0416 0 15.8636 0ZM15.8636 12.1451H2.13645C1.96328 12.1451 1.81141 12.0301 1.81141 11.899V3.39664L8.01984 8.76409C8.14712 8.87417 8.30898 8.93476 8.47564 8.93476L9.52417 8.93481C9.69074 8.93481 9.85269 8.87417 9.98002 8.76409L16.1887 3.39645V11.8991C16.1886 12.0301 16.0367 12.1451 15.8636 12.1451ZM9.00002 7.09303L2.96155 1.85485H15.0385L9.00002 7.09303Z" fill="black"/>
</svg>
