<svg width="22" height="26" viewBox="0 0 22 26" fill="none" xmlns="http://www.w3.org/2000/svg">
<path d="M17.9061 11.368C20.7757 10.1674 22 7.72872 22 5.96537C22 2.88889 19.8191 0 13.7739 0C10.3304 0 7.57565 0.487735 2.90783 2.43867L4.78261 7.87879C7.7287 6.60317 9.68 6.15296 11.3635 6.15296C12.6643 6.15296 13.2 6.79076 13.2 7.42857C13.2 9.07937 10.9809 9.82973 6.69565 10.6176L7.53739 15.3824C9.18261 15.1573 9.94783 15.1198 10.3687 15.1198C11.8226 15.1198 13.0852 15.6075 13.0852 16.9206C13.0852 19.1342 10.9043 19.697 8.72348 19.697C6.92522 19.697 5.24174 19.2468 2.52522 18.3838L0 23.9365C2.8313 25.6999 7.80522 26 9.33565 26C17.4087 26 21.8852 21.9105 21.8852 16.7706C21.8852 14.8571 20.8522 12.5685 17.8678 11.5931L17.9061 11.368Z" fill="#00A9CF"/>
</svg>
