<svg width="17" height="17" fill="none" xmlns="http://www.w3.org/2000/svg"><path opacity=".3" d="M3.432 11.3A18.036 18.036 0 0 0 9.431 16c.877.415 2.05.908 3.357.993.081.004.159.007.24.007.877 0 1.581-.303 2.155-.926a.094.094 0 0 0 .014-.018c.205-.247.437-.469.68-.705.166-.158.335-.324.497-.493.75-.782.75-1.775-.007-2.533L14.25 10.21c-.36-.374-.79-.571-1.24-.571-.451 0-.884.197-1.254.567l-1.261 1.261a6.2 6.2 0 0 0-.349-.183 4.336 4.336 0 0 1-.387-.211c-1.149-.73-2.192-1.68-3.188-2.903-.504-.638-.842-1.173-1.078-1.72.33-.299.64-.612.94-.919.106-.109.215-.218.324-.327.38-.38.585-.82.585-1.268 0-.448-.2-.888-.585-1.268l-1.05-1.05c-.123-.123-.239-.243-.359-.366-.232-.24-.475-.487-.715-.709C4.27.187 3.844 0 3.393 0c-.447 0-.877.187-1.254.546L.822 1.863c-.48.48-.75 1.06-.807 1.734-.067.841.088 1.736.49 2.818C1.12 8.088 2.05 9.64 3.432 11.3zM.875 3.67c.042-.468.221-.859.56-1.197l1.31-1.31c.204-.198.43-.3.648-.3.215 0 .433.102.634.306.236.219.458.448.698.69l.366.374 1.05 1.05c.218.218.331.44.331.659 0 .218-.113.44-.331.659-.11.109-.219.221-.328.33-.327.332-.634.645-.972.945l-.018.017c-.292.293-.246.57-.176.782l.01.028c.272.652.649 1.272 1.237 2.012 1.057 1.303 2.17 2.314 3.396 3.093.152.098.314.176.465.253.14.07.271.138.387.212.015.007.025.014.04.02.115.06.228.089.34.089.283 0 .466-.18.526-.24l1.317-1.317c.205-.204.426-.314.645-.314.268 0 .486.166.623.314l2.125 2.12c.422.423.419.881-.011 1.329-.148.158-.303.31-.469.468-.246.24-.503.486-.736.764-.405.437-.887.642-1.511.642a2.8 2.8 0 0 1-.183-.008c-1.156-.073-2.23-.524-3.037-.908a17.134 17.134 0 0 1-5.71-4.474C2.787 9.176 1.903 7.704 1.318 6.126.956 5.157.818 4.379.875 3.67z"/></svg>