<svg width="239" height="50" fill="none" xmlns="http://www.w3.org/2000/svg"><path d="M14.055 2.313C12.547 1.02 10.9.273 9.05.273H0v21.496h4.73v-6.871h4.32c1.92 0 3.565-.68 5.005-2.04 1.508-1.43 2.262-3.13 2.262-5.239 0-2.245-.685-3.946-2.262-5.306zm-3.36 7.55c-.548.477-1.234.681-1.92.681H4.732V4.626h4.045c.685 0 1.302.272 1.92.68.548.476.89 1.157.89 2.245s-.274 1.905-.89 2.313zm21.185 3.674c2.331-.952 3.84-3.333 3.84-6.122 0-2.04-.686-3.673-2.126-5.034-1.44-1.429-3.153-2.04-5.21-2.04h-9.05v21.428h4.73v-7.143h3.223l4.456 7.143h5.348l-5.21-8.232zm-4.045-3.129h-3.77V4.626h4.182c1.508 0 2.674 1.156 2.674 2.857 0 1.837-1.235 2.925-3.086 2.925zm29.961-7.143C55.602 1.088 52.86 0 49.706 0s-5.896 1.088-8.159 3.265c-2.262 2.177-3.36 4.762-3.36 7.891 0 3.13 1.098 5.715 3.36 7.892 2.263 2.109 5.005 3.197 8.159 3.197 3.222 0 5.965-1.088 8.159-3.197 2.262-2.177 3.359-4.762 3.359-7.891 0-3.198-1.097-5.783-3.428-7.892zm-3.36 12.653c-1.302 1.293-2.879 1.973-4.73 1.973-1.92 0-3.497-.68-4.8-1.905-1.302-1.292-1.919-2.925-1.919-4.898 0-1.904.686-3.469 1.92-4.761 1.302-1.293 2.88-2.041 4.799-2.041 1.92 0 3.496.68 4.8 2.04 1.302 1.293 1.919 2.926 1.919 4.762 0 1.905-.617 3.538-1.988 4.83zm22.762-.884c1.166 1.905 2.949 2.857 5.417 2.857 2.194 0 3.222-.952 3.222-2.109 0-.816-.48-1.36-1.165-1.768-.412-.272-1.303-.68-1.852-.817-.548-.204-1.782-.612-2.4-.884-3.359-1.225-5.21-2.993-5.21-6.259 0-1.836.686-3.333 2.057-4.353C78.707.612 80.352 0 82.41 0c3.154 0 5.485 1.156 7.199 3.537l-3.222 2.381c-.892-1.088-2.126-1.7-3.908-1.7-1.577 0-2.606.748-2.606 1.768 0 .68.206 1.157.823 1.565.343.204.686.34.96.476l1.508.544c.686.273 1.303.477 1.851.68 3.908 1.497 5.485 3.266 5.485 6.327 0 3.946-2.742 6.53-8.021 6.53-4.388 0-7.405-1.904-8.845-4.761l3.566-2.313z" fill="#fff"/><path d="M93.516 21.769V.34h4.73v17.143h33.526v4.286H93.516z" fill="#00A9CF"/><path d="M136.16.34h4.799v21.43h-4.799V.34zm25.779 2.993c-1.989-2.04-4.8-2.993-8.433-2.993h-8.159v21.43h8.227c3.702 0 6.445-.953 8.433-2.925 1.988-1.905 2.948-4.558 2.948-7.756-.068-3.197-1.097-5.782-3.016-7.755zm-8.776 14.15h-3.154V4.626h3.085c2.537 0 4.388.544 5.348 1.7 1.028 1.157 1.577 2.722 1.577 4.762.068 3.946-1.783 6.395-6.856 6.395zm14.946 4.286V.34h14.74v4.286h-9.941v4.081h9.256v4.218h-9.256v4.558h10.147v4.286h-14.946zm20.294-6.735c1.165 1.905 2.948 2.857 5.416 2.857 2.194 0 3.222-.952 3.222-2.109 0-.816-.48-1.36-1.165-1.768-.412-.272-1.303-.68-1.851-.817-.549-.204-1.783-.612-2.4-.884-3.359-1.225-5.21-2.993-5.21-6.259 0-1.836.685-3.333 2.056-4.353C189.911.612 191.557 0 193.613 0c3.154 0 5.485 1.156 7.199 3.537l-3.154 2.381c-.891-1.088-2.125-1.7-3.908-1.7-1.576 0-2.605.748-2.605 1.768 0 .68.206 1.157.823 1.565.343.204.686.34.96.476l1.508.544c.686.273 1.303.477 1.851.68 3.908 1.497 5.485 3.266 5.485 6.327 0 3.946-2.742 6.53-8.022 6.53-4.387 0-7.404-1.904-8.844-4.761l3.497-2.313z" fill="#fff"/><path d="M175.171 37.551a2.553 2.553 0 0 0-1.166-.544c-.343-.068-.823-.068-1.302 0-.275.068-.48.068-.755.204-.205.068-.48.136-.685.204-.617.272-1.166.544-1.783.816-.548.34-1.165.544-1.714.885-.343.204-.685.34-1.028.544-.343.204-.686.34-1.029.544-.205.068-.342.204-.411.204-.274.068-.411-.204-.274-.816.206-1.02.617-2.041 1.165-3.061.549-1.02 1.234-2.041 1.989-3.062.754-1.02 1.576-1.904 2.468-2.789.891-.816 1.714-1.564 2.536-2.109.138-.136.275-.204.412-.34l.411-.204c.206 0 .274 0 .412.068.137 0 .205-.068.274-.136a.434.434 0 0 0 0-.408c-.343-.34-.823-.544-1.166-.408-.205.068-.411.136-.685.272-.275.136-.549.34-.823.476a19.39 19.39 0 0 1-.754.544c-.206.204-.412.34-.549.477-1.439 1.292-2.742 2.653-3.839 4.15-1.097 1.496-2.057 3.129-2.742 4.965a7.138 7.138 0 0 0-.412 1.633c-.068.544.069.952.274 1.292.275.34.686.409 1.166.409.206-.069.411-.069.686-.069.205-.068.411-.136.685-.204.274-.204.617-.34.96-.544.274-.204.686-.34 1.028-.544l2.057-1.02c.686-.34 1.44-.68 2.126-.953.205-.068.342-.136.479-.204.138-.068.275-.068.412-.068.206-.068.411-.068.548 0 .137.068.206.204.275.408v.408c0 .749-.206 1.701-.549 2.654a30.568 30.568 0 0 1-1.44 3.06 15.527 15.527 0 0 1-1.919 2.79c-.686.816-1.372 1.496-2.057 1.905-.206.136-.343.204-.48.204-.206.068-.343-.136-.411-.545-.069-.408 0-.952.137-1.36.137-.476.274-.953.548-1.36l.823-1.225c.274-.408.617-.748.891-1.02.206-.205.48-.34.754-.409.206 0 .343-.068.412 0h.548c.069 0 .137-.068.137-.068 0-.068 0-.136-.068-.204-.206-.204-.549-.34-.823-.408a2.284 2.284 0 0 0-.96 0c-.48.068-.891.34-1.371.68-.411.408-.823.817-1.166 1.36-.274.477-.617 1.021-.822 1.633-.206.613-.343 1.089-.412 1.565-.068.953.275 1.565 1.029 1.905.411.204.822.204 1.234.136.823-.204 1.508-.612 2.262-1.36a15.017 15.017 0 0 0 2.057-2.518c.617-.952 1.166-1.904 1.577-2.925.48-1.02.823-1.837 1.028-2.517.069-.34.206-.68.206-.952.069-.34.069-.68.069-.953 0-.476-.137-.884-.48-1.088zm63.76-10c-.068-.068-.274-.068-.685-.068-.412.068-.617.272-.754.612-.069.136-.069.204-.137.34-.069.136-.069.204-.138.34a33.365 33.365 0 0 1-.891 2.382 33.345 33.345 0 0 1-.891 2.38c-.274.613-.549 1.293-.823 1.905-.274.612-.548 1.225-.891 1.837-.069.204-.206.34-.274.544-.137.204-.275.34-.412.476-.137-.204-.274-.34-.274-.544-.069-.204-.137-.408-.206-.544a19.618 19.618 0 0 1-.617-4.082c-.068-2.109-.205-4.217-.205-6.326-.069-2.11 0-4.218.137-6.327l.205-3.877c.069-1.293.206-2.653.343-3.946.069-.204.069-.34.069-.476 0-.204.068-.34.068-.476 0-.204-.068-.34-.274-.409-.137-.067-.274-.067-.343-.136-.068 0-.205-.068-.342 0-.206.069-.275.204-.275.34-.274 2.313-.48 4.49-.617 6.735s-.205 4.49-.274 6.735v4.286c-.069 0-.137.068-.206.136-.137.068-.274.204-.411.34l-.617.612c-.274.34-.549.544-.891.817a8.677 8.677 0 0 1-.892.748c-.274.204-.548.34-.685.408-.137.068-.206-.068-.206-.34.137-.613.274-1.225.274-1.837a8.174 8.174 0 0 0 0-1.837 5.18 5.18 0 0 0-.548-1.904c-.274-.545-.754-1.02-1.234-1.429a3.658 3.658 0 0 0-1.714-.816c-.686-.136-1.303-.136-2.057 0-.823.136-1.508.476-2.194.952a5.198 5.198 0 0 0-1.508 1.905 6.9 6.9 0 0 0-.549 1.428 6.135 6.135 0 0 0-.205 1.565c0 .544.068 1.02.205 1.429.069.204.206.408.274.612l-.617.612c-.274.34-.548.544-.891.816-.343.273-.617.545-.891.749-.274.204-.549.34-.686.408-.137.068-.205-.068-.205-.34.137-.613.274-1.225.274-1.837 0-.612.068-1.224 0-1.837a5.18 5.18 0 0 0-.549-1.904c-.274-.545-.754-1.02-1.234-1.43a3.654 3.654 0 0 0-1.714-.815c-.685-.137-1.302-.137-2.057 0-.822.204-1.508.544-2.193 1.02a5.201 5.201 0 0 0-1.509 1.905 6.96 6.96 0 0 0-.548 1.428 6.137 6.137 0 0 0-.206 1.565c0 .544.069 1.02.206 1.428.137.34.274.613.411.817-.137.204-.274.408-.343.68-.068.204-.205.408-.274.68-.274.68-.686 1.36-.96 2.041-.343.68-.685 1.293-1.028 1.973-.069.204-.206.408-.412.68-.205.34-.411.612-.685.953-.274.34-.48.68-.754.952-.275.272-.48.408-.617.408-.069 0-.206-.068-.275-.204a4.526 4.526 0 0 1-.617-1.292 9.816 9.816 0 0 1-.342-1.361c-.069-.612-.206-1.224-.206-1.837-.069-.612-.069-1.224-.206-1.904 0-.273-.068-.545-.068-.817 0-.272-.069-.544-.137-.748-.069-.408-.275-.68-.549-.816-.274-.137-.686-.205-1.028-.068-.343.068-.686.204-.892.408a9.502 9.502 0 0 0-1.439 1.837 14.81 14.81 0 0 0-1.029 2.108l-.205.409c-.069.136-.138.272-.275.408l-.068-.068-.069-.068c-.068-.545-.068-.953-.068-1.361 0-.408 0-.748.068-1.02.069-.34.206-.68.343-.953.137-.272.411-.68.686-1.088.274-.544.685-1.225 1.028-1.973.411-.748.823-1.565 1.234-2.38l1.234-2.654a22.03 22.03 0 0 0 1.029-2.721c.342-.952.548-1.769.754-2.585.205-.816.274-1.565.205-2.177-.068-1.02-.48-1.633-1.302-1.905-.343-.136-.686-.136-1.029-.068-.411.068-.822.34-1.234.817-.411.476-.685.952-1.028 1.496-.274.544-.549 1.157-.823 1.7-.206.545-.411 1.021-.548 1.43a40.254 40.254 0 0 0-1.509 5.986 36.372 36.372 0 0 0-.685 6.054c-.069.34-.069.68-.137 1.02v.069c-.206.068-.343.136-.48.34-.412.476-.823.952-1.166 1.496-.411.545-.823 1.02-1.165 1.565-.275.408-.754 1.02-1.372 1.769a59.258 59.258 0 0 1-1.988 2.313c-.685.816-1.44 1.428-2.057 2.04-.685.613-1.302.953-1.714 1.02-.274.069-.411 0-.548-.203a2.391 2.391 0 0 1-.274-.612c-.137-.273-.206-.545-.275-.885-.068-.34-.137-.612-.137-.952a15.5 15.5 0 0 1 .069-3.061c.137-1.089.343-2.177.686-3.198.274-1.02.685-2.04 1.234-2.993.548-.952 1.165-1.769 1.919-2.449.206-.204.412-.34.617-.476.206-.136.412-.204.686-.272.068 0 .206 0 .274.068.069.068.137.068.069.204-.069.272 0 .408.068.544.137.068.275.204.412.272.068 0 .205.068.205.068h.206c.137-.068.206-.068.274-.136.069-.136.137-.204.137-.34 0-.136-.068-.272-.068-.34a1.06 1.06 0 0 0-.412-.544c-.205-.136-.411-.272-.685-.34-.274-.068-.48-.136-.754-.205a1.179 1.179 0 0 0-.686 0c-.411.069-.891.34-1.303.613-.411.272-.754.68-1.097 1.156-.342.476-.685.953-.891 1.429-.274.476-.48.884-.685 1.292-.686 1.497-1.166 2.993-1.372 4.422-.205 1.429-.274 2.993-.205 4.626a7.63 7.63 0 0 0 .411 1.7c.206.613.617 1.021 1.028 1.293a3.344 3.344 0 0 0 1.646.204c.48-.136 1.028-.34 1.577-.748.548-.34 1.097-.816 1.645-1.293.549-.476 1.029-1.02 1.509-1.564.411-.544.822-1.02 1.165-1.429.686-.884 1.371-1.7 2.057-2.585.548-.68 1.028-1.292 1.577-1.973.068.136.068.273.068.409v.408c.069.408.069.884.137 1.292.069.408.069.885.138 1.293.068.544.274.816.754.816.068 0 .205 0 .343-.068.342-.068.617-.34.822-.748.069-.272.206-.476.274-.68.069-.205.206-.409.275-.68.274-.817.685-1.77 1.028-2.654.411-.884.891-1.7 1.508-2.38.069-.069.138-.137.206-.137.137 0 .206.068.206.204.068.272.068.544.137.817.068.272.068.544.137.884.069.408.069.884.137 1.292 0 .409.069.885.137 1.293.069.884.275 1.7.549 2.517.205.544.411.952.822 1.292.343.34.892.477 1.509.34a2.39 2.39 0 0 0 .96-.408c.274-.204.617-.408.891-.748s.548-.612.754-.952c.206-.34.411-.68.617-.953a25.482 25.482 0 0 0 1.646-2.993c.205-.408.342-.748.548-1.088 0 .34 0 .68.069 1.088a4.48 4.48 0 0 0 .548 1.769c.274.544.686.952 1.166 1.292.685.477 1.439.613 2.125.477.548-.068 1.028-.34 1.44-.68.411-.34.822-.749 1.165-1.225.343-.476.617-1.02.892-1.565.274-.544.479-1.02.685-1.564.069-.273.274-.409.48-.477.96-.408 1.783-.952 2.605-1.564.48-.34.96-.748 1.372-1.157v.477a7.576 7.576 0 0 0 0 1.768 4.48 4.48 0 0 0 .548 1.769c.274.476.686.952 1.166 1.292.685.477 1.439.613 2.125.477.548-.068 1.028-.34 1.44-.68.411-.34.822-.749 1.165-1.225.343-.476.617-1.02.891-1.565.275-.544.48-1.02.686-1.564.069-.273.274-.409.48-.477.96-.408 1.783-.952 2.605-1.564.48-.34.96-.748 1.371-1.157 0 1.225.069 2.381.206 3.538.069 1.02.206 2.109.48 3.129.069.544.274 1.02.549 1.429.068.272.274.408.479.476.206.068.48.068.686 0 .411-.068.823-.34 1.166-.612l.822-1.02c.412-.681.754-1.361 1.029-2.042.274-.748.617-1.428.891-2.177.274-.884.686-1.7.96-2.585.274-.884.685-1.7 1.028-2.585.343-.544.343-.748.274-.816zm-46.14 3.47c.068-.817.274-1.701.411-2.654.137-.952.411-1.904.686-2.925a26.67 26.67 0 0 1 .891-2.789c.343-.884.685-1.7 1.097-2.313a7.803 7.803 0 0 1 1.234-1.564c.068-.069.068-.069.206-.069.068-.068.205 0 .274.136.068.205.137.34.137.545.068.204.068.408.068.748-.068.816-.274 1.837-.617 2.993-.342 1.157-.822 2.313-1.302 3.538a53.777 53.777 0 0 1-1.577 3.469c-.549 1.088-1.029 2.04-1.508 2.79-.069.067-.069.135-.206.067-.069-.068-.069-.068-.069-.136.137-.476.206-1.156.275-1.837zm18.854 6.734a25.7 25.7 0 0 1-.686 1.293c-.274.408-.549.816-.891 1.156-.275.34-.617.544-.892.544-.137.068-.274 0-.411-.068-.137-.068-.274-.204-.411-.34-.137-.136-.275-.34-.412-.408a1.46 1.46 0 0 0-.274-.34c-.548-.953-.823-1.905-.686-2.993 0-.136.069-.204.138-.204.068 0 .137-.069.205-.069.069.069.137.069.206.069 1.303.476 2.742.612 4.251.34h.411c-.206.272-.343.612-.548 1.02zm1.508-5.51c-.069.476-.069.952-.206 1.428-.068.477-.205.953-.274 1.293-.137.408-.274.612-.549.68-.342.204-.754.34-1.234.408-.617.136-1.234.204-1.851.068-.617-.068-1.165-.272-1.714-.544-.205-.136-.205-.34-.205-.544.205-.816.48-1.633.891-2.38.068-.069.068-.137.137-.205.069-.068.069-.204.137-.272.069-.068.069-.136.137-.204.069-.068.069-.068.137-.204.069-.068.069-.136.069-.204 0-.068-.069-.136-.137-.205-.274-.203-.549-.272-.754-.203-.137.067-.275.067-.412.272-.137.204-.274.34-.411.544-.137.204-.274.408-.343.544-.068.204-.206.34-.206.476-.068.204-.137.34-.205.34a.524.524 0 0 1-.274.136c-.069 0-.069-.068-.069-.136-.206-.68-.206-1.292-.069-2.04.275-1.02.686-1.905 1.44-2.722.686-.816 1.508-1.292 2.605-1.496.892-.204 1.714.136 2.4.952.343.408.617.953.754 1.497.137.544.206 1.088.206 1.7.068.205.068.545 0 1.02zm10.969 3.13c-.205.407-.411.816-.685 1.292-.274.408-.549.816-.891 1.156-.275.34-.617.544-.892.544-.137.068-.274 0-.411-.068-.137-.068-.274-.204-.411-.34-.138-.136-.275-.34-.412-.408a1.46 1.46 0 0 0-.274-.34c-.548-.953-.823-1.905-.686-2.993 0-.136.069-.204.138-.204.068 0 .137-.068.205-.068.069.068.137.068.206.068 1.303.476 2.742.612 4.251.34h.411c-.206.204-.343.544-.549 1.02zm1.509-5.58c-.069.477-.069.953-.206 1.43-.068.476-.206.952-.274 1.292-.069.34-.274.612-.549.68-.342.204-.754.34-1.234.408-.617.137-1.234.205-1.851.069-.617-.137-1.165-.273-1.714-.545-.205-.136-.205-.34-.205-.544.205-.816.479-1.633.891-2.38.068-.069.068-.137.137-.205.068-.068.068-.204.137-.272.069-.068.069-.136.137-.204.069-.068.069-.068.137-.204.069-.068.069-.136.069-.204 0-.068-.069-.136-.137-.204-.275-.204-.549-.272-.754-.204a1.423 1.423 0 0 0-.412.272c-.137.204-.274.34-.411.544-.137.204-.274.408-.343.544-.069.204-.206.34-.206.476-.068.204-.137.34-.205.34a.523.523 0 0 1-.275.136c-.068 0-.068-.068-.068-.136-.206-.68-.206-1.292-.069-2.04.275-1.02.686-1.905 1.44-2.722.686-.816 1.508-1.292 2.605-1.496.892-.204 1.714.136 2.4.952.343.408.617.953.754 1.497.137.544.206 1.088.206 1.7.068.273.068.613 0 1.02z" fill="#00A9CF"/></svg>